PathFileType	4	(X/Y/Z)	T1_P2_Vision_NoMovement_3_0-731.trc
DataRate	CameraRate	NumFrames	NumMarkers	Units	OrigDataRate	OrigDataStartFrame	OrigNumFrames
60	60	5	27	m	60	0	731
Frame#	Time	RHip			RKnee			RAnkle			RBigToe			RSmallToe			RHeel			LHip			LKnee			LAnkle			LBigToe			LSmallToe			LHeel			Neck			Head			Nose			RShoulder			RElbow			RWrist			RThumb			RIndex			RPinky			LShoulder			LElbow			LWrist			LThumb			LIndex			LPinky		
		X1	Y1	Z1	X2	Y2	Z2	X3	Y3	Z3	X4	Y4	Z4	X5	Y5	Z5	X6	Y6	Z6	X7	Y7	Z7	X8	Y8	Z8	X9	Y9	Z9	X10	Y10	Z10	X11	Y11	Z11	X12	Y12	Z12	X13	Y13	Z13	X14	Y14	Z14	X15	Y15	Z15	X16	Y16	Z16	X17	Y17	Z17	X18	Y18	Z18	X19	Y19	Z19	X20	Y20	Z20	X21	Y21	Z21	X22	Y22	Z22	X23	Y23	Z23	X24	Y24	Z24	X25	Y25	Z25	X26	Y26	Z26	X27	Y27	Z27
1	0.0166666666666666	454.14650982990406	3709.4763100832315	647.4731264713561	822.5290113968235	3698.288754382039	631.3806370924992	1206.3764407411225	3713.2357442908556	670.6684265031951	1282.0713397110444	3619.080472538003	642.1189364804504	1288.8779150529342	3684.586669800913	603.493034743457	1287.226939431217	3802.115419379632	742.5857620516492	463.82950787408726	3621.3224024262477	845.9289663469948	844.6690887040271	3633.2244482707547	859.99683550688	1233.792976150684	3679.264818634498	855.6959534756601	1301.3141481868895	3539.961947469947	804.0452491163177	1288.647066428746	3538.8323991756133	846.386486771248	1263.8832055395872	3708.622102121524	858.8935231563546	-126.17420593813543	3613.171897539303	733.321492981312	-397.16810739322494	3571.282517871508	699.0287266529076	-250.38324605643558	3518.2444113335714	697.9863504484724	-48.30632131451388	3660.65178008044	576.8236537985125	200.79326229110174	3678.5876535914304	524.0113362300134	348.15693936630646	3540.0731134920406	616.8923001303216	417.68013164372707	3513.1544252999697	695.3674508935894	438.74957962188563	3498.2836318509067	709.3342027612887	464.1175175109855	3470.0731326568657	663.6985712835126	-44.890185430796876	3556.452198909498	877.6453329081539	213.05430994813304	3467.761235925417	878.4898352462446	353.56154777770416	3416.4766888411123	700.2384979582184	401.9492436763385	3424.541735645271	602.041100844079	432.9594682147143	3414.608189876501	594.4966028519455	457.25308716669883	3421.0079976446286	643.5377177704225
2	0.0333333333333333	453.60003831644605	3703.8331273220865	643.5379702638999	823.2785558500894	3710.5770387089124	634.1850287158471	1205.7723786195909	3724.184839974884	673.0593039991899	1287.3906295140318	3632.986467151711	646.2414716799761	1288.8968267523533	3684.9864848292787	603.5662591082053	1280.5366905052622	3797.435014129006	741.4123891005645	462.7813115083985	3622.683498548049	846.7365925610202	837.5568390328631	3624.7502082236315	850.4926823123606	1233.7911743023003	3679.4777975278253	855.8056765826434	1303.1065460196376	3544.88617793949	805.5369040544696	1287.636505222674	3538.6788720620684	846.060502132644	1261.3466815410975	3708.033848268714	858.0216680806898	-126.0645902715007	3617.661240624139	734.4437259251024	-395.5538709298081	3573.3306287279283	699.5485551668423	-250.1548671092482	3523.601363927143	698.9573637478558	-47.77799450998946	3660.3360148703937	575.3094621350897	198.2326542566268	3677.7579482447686	523.6982166546001	351.44773925310676	3541.946416103394	617.6306858557268	415.2384378152551	3486.2027963734677	675.2121430488586	437.4049276693891	3488.0313921939405	701.2773229009995	462.2032275131595	3462.0107668157784	659.4484200173246	-43.85409570789101	3557.4139674531107	878.0547899857197	212.49544751068987	3472.692955155845	877.8751744538682	357.20058979032916	3422.4624267137915	705.5952002102053	402.64492693281477	3424.341241874961	603.7887321125883	432.74740004719916	3413.5120415602773	594.9707560732621	459.9953976822733	3421.691740110635	646.3619021675556
3	0.05	454.4811955562992	3702.120472801049	642.6030036704246	824.0792434561588	3720.2803104957975	636.3684031483095	1206.6804041897308	3731.5325100287773	674.8757974727949	1291.550060327711	3641.9497838027987	649.1319323240757	1288.5190132620705	3685.5427372606396	603.8580105274374	1277.5249566502039	3795.361315211642	740.9222658718363	462.3529967026383	3623.393874432475	847.1683555216291	835.0634941104508	3624.5933945099487	845.574784393541	1233.8848263727957	3679.6986840425425	855.9191937445179	1303.97126599898	3547.2994959630514	806.3268388796978	1287.5912030653928	3538.84387086832	846.0427800951622	1260.3643857944226	3707.995662566337	857.5942291625727	-125.95640332217707	3619.7346391109368	734.8963321523703	-393.79733902409015	3573.6106815361477	697.8619746599052	-249.21428210213827	3525.5745407079567	698.3842455392734	-46.64584989143984	3659.062795688881	574.560826132038	197.65284607590644	3677.6600955070758	523.6761637573251	353.50636079747323	3543.095915356487	618.1426029115112	413.63941614050293	3468.603044281459	661.6818667436844	437.36686716769174	3481.2417676319146	695.882193554264	462.02053912066236	3457.222668332911	656.3986014742919	-42.69150990342534	3557.641123281026	878.0978408672324	212.11984241879523	3477.6115821086964	879.0669049202675	360.1813999729941	3428.8617846141065	709.834845469146	403.92718583558377	3424.4297286985307	605.420685500296	432.68537492660823	3413.1327142129785	595.6970211591881	462.4612371496743	3422.298573336789	649.0635193341369
4	0.0666666666666666	456.49961593964946	3705.0127193759026	644.3127959971345	825.9649109740233	3728.6891331198317	638.3457547885743	1208.589358935324	3734.5918644384656	675.9261045606285	1294.2287012145632	3645.4832703112506	650.6166424340345	1287.7138582006291	3686.4608390076583	604.466270274457	1277.5336393908449	3795.4653460565432	740.9550131580552	462.70007614740916	3623.1831980068087	847.0657894998956	836.736515482942	3631.5821137299413	845.6587984803937	1233.8527076715536	3679.772044709431	855.973206241393	1304.0476481553308	3547.5909263688795	806.4897507182438	1287.761517445469	3539.0124791455946	846.0834816577212	1260.3583633231874	3708.1402974788098	857.5205397082382	-125.86362985878446	3619.9034277445494	734.8451548942669	-391.9291748149683	3570.557525793571	693.0312853813048	-247.68899737007013	3523.2262259260006	696.2301240337915	-45.09828923199544	3657.0254714999273	574.3316783572755	198.95291022336662	3678.244524876986	523.9264224814307	354.2258578743259	3543.4682351244014	618.3974361128546	413.488277576613	3462.925875176461	656.7244394492428	438.7319135738356	3478.3559038751555	693.7297744596452	463.4700113183279	3455.7399237265295	654.2063903688388	-41.2617714875105	3556.8142675243917	877.5841619588798	212.68139682127938	3481.747697919711	881.6430331563763	362.42799513071697	3434.1386352572463	712.3673517266468	405.75678936688354	3426.040766316649	606.8349186494329	433.01327650962764	3414.930253705519	596.5305276694735	464.2684224883015	3422.633734234695	651.0278990702827
5	0.0833333333333333	458.31000551687833	3711.947469938944	647.1784784826638	829.1669185908002	3737.4140174785502	640.5569178886651	1209.850002037797	3735.0284787973774	676.1618124630422	1295.5771422868884	3646.0527040922652	651.1750775842672	1287.181612465934	3687.811215873291	605.182880292419	1277.1042729581332	3795.4237481630666	740.814445269406	463.3190406658793	3622.5610662665695	846.7133091698341	839.1939573174716	3638.477301097149	848.2305273439731	1233.117503880342	3679.2947010219195	855.7943705324528	1304.685829250197	3549.3955851352653	807.1356997317771	1286.813362098344	3538.676808282429	845.7869128259216	1259.9668267974741	3707.8687644376355	857.4647906092191	-125.80573251935854	3621.8563693920114	735.3602014776525	-389.9409533192022	3564.875966068139	686.7064098865925	-246.38871308224026	3519.5124325249217	693.9049572672226	-43.87495756021573	3655.2678194269592	574.1702368382191	200.44417611145136	3678.8163365645964	524.1775816561463	354.2433376390794	3543.4503856940355	618.4770129211169	414.72022266183995	3466.2925108500967	658.6021724710466	440.4237690340491	3477.7590868387456	693.8002849944385	464.7740006160072	3455.6765732940617	652.2439942929113	-39.62446328925759	3555.507489284494	876.7926186875249	214.63509264862796	3483.531298945569	883.1526144957534	364.1852984715154	3436.9958370397344	713.2727907869239	407.65226596615764	3430.5795681583772	608.3213358425505	433.8625209894339	3420.0988911699433	597.463496728279	464.9273395035325	3422.6215019868196	651.8410216750563
